<svg xmlns="http://www.w3.org/2000/svg" width="14" height="14" viewBox="0 0 14 14">
  <g>
    <g>
      <path fill="currentColor"
        d="M8.527 1.889a5.339 5.339 0 0 1 3.765 4.444H9.65A11.933 11.933 0 0 0 8.527 1.89zm-2.84 4.444c.096-1.58.545-3.117 1.313-4.501a10.603 10.603 0 0 1 1.313 4.501zm-3.979 0A5.339 5.339 0 0 1 5.474 1.89a11.933 11.933 0 0 0-1.122 4.444zm10.584 1.334a5.339 5.339 0 0 1-3.765 4.444 11.933 11.933 0 0 0 1.122-4.444zm-3.978 0A10.603 10.603 0 0 1 7 12.167a10.61 10.61 0 0 1-1.313-4.5zm-2.84 4.444a5.339 5.339 0 0 1-3.766-4.444h2.644c.083 1.54.464 3.05 1.122 4.444zM13.667 7A6.667 6.667 0 1 0 .334 7a6.667 6.667 0 0 0 13.333 0z" />
    </g>
  </g>
</svg>
