<svg xmlns="http://www.w3.org/2000/svg" width="88" height="48" viewBox="0 0 88 48">
  <g>
    <g>
      <g>
        <path fill="currentColor"
          d="M30.14 7.56h5.824v5.28H30.14v7.28c-.005.378.02.757.077 1.133.043.315.188.607.413.832.301.26.667.437 1.059.51.66.128 1.332.185 2.004.169.607-.001 1.213-.033 1.816-.097a9.109 9.109 0 0 0 1.703-.32v5.513c-.573.136-1.155.23-1.742.282-.653.061-1.336.096-2.04.096a16.538 16.538 0 0 1-4.349-.493 7.426 7.426 0 0 1-2.874-1.415c-.733-.617-2.12-1.831-2.12-5.455V2.093h6.053z" />
      </g>
      <g>
        <path fill="currentColor"
          d="M10.124 22.525a4.808 4.808 0 0 1-4.813-4.803 4.808 4.808 0 0 1 4.813-4.804 4.808 4.808 0 0 1 4.813 4.804 4.812 4.812 0 0 1-4.813 4.803m0-14.9C4.532 7.625-.001 12.151 0 17.732c.001 5.582 4.537 10.105 10.13 10.102 5.591-.003 10.122-4.53 10.118-10.112-.002-5.579-4.534-10.1-10.124-10.1" />
      </g>
      <g>
        <path fill="currentColor"
          d="M88 16.401v11.315h-6.049v-9.722a5.016 5.016 0 0 0-4.74-5.043h-.25a5.952 5.952 0 0 0-3.682 1.268v13.512h-6.103V7.57h6.096v.875a13.316 13.316 0 0 1 8.679-.281l.07.023A8.618 8.618 0 0 1 88 16.416" />
      </g>
      <g>
        <g opacity=".7">
          <g opacity=".7">
            <path fill="currentColor" d="M41.868 30.399a1.73 1.73 0 1 1-.63-2.363 1.727 1.727 0 0 1 .63 2.363" />
          </g>
          <g opacity=".7">
            <path fill="currentColor" d="M65.425 6.903a1.73 1.73 0 1 1-2.996-1.736 1.73 1.73 0 1 1 2.996 1.736" />
          </g>
          <g opacity=".7">
            <path fill="currentColor" d="M39.514 7.543a1.732 1.732 0 1 1 1.733-2.999 1.732 1.732 0 0 1-1.733 3" />
          </g>
          <g opacity=".7">
            <path fill="currentColor" d="M63.058 31.036a1.733 1.733 0 1 1 2.367-.636 1.736 1.736 0 0 1-2.367.636" />
          </g>
          <g opacity=".7">
            <path fill="currentColor" d="M46.348 2.607A1.732 1.732 0 1 1 49.347.875a1.732 1.732 0 0 1-3 1.732" />
          </g>
          <g opacity=".7">
            <path fill="currentColor" d="M54.96 34.698a1.73 1.73 0 1 1 2.999-1.727 1.73 1.73 0 0 1-3 1.727" />
          </g>
          <g opacity=".7">
            <path fill="currentColor" d="M54.761 1.736a1.732 1.732 0 1 1 3.464-.008 1.732 1.732 0 0 1-3.464.008" />
          </g>
          <g opacity=".7">
            <path fill="currentColor" d="M46.138 33.832a1.732 1.732 0 1 1 3.464-.01 1.732 1.732 0 0 1-3.464.01" />
          </g>
        </g>
        <g>
          <g>
            <g>
              <path fill="currentColor" d="M49.658 7.749a2.495 2.495 0 1 1 4.99 0 2.495 2.495 0 0 1-4.99 0z" />
            </g>
            <g>
              <path fill="currentColor" d="M59.61 17.673a2.495 2.495 0 1 1 4.989 0 2.495 2.495 0 0 1-4.99 0z" />
            </g>
            <g>
              <path fill="currentColor" d="M49.658 27.598a2.495 2.495 0 1 1 4.99 0 2.495 2.495 0 0 1-4.99 0z" />
            </g>
            <g>
              <path fill="currentColor" d="M39.707 17.673a2.495 2.495 0 1 1 4.99 0 2.495 2.495 0 0 1-4.99 0z" />
            </g>
            <g>
              <path fill="currentColor" d="M56.695 10.656a2.495 2.495 0 1 1 4.99 0 2.495 2.495 0 0 1-4.99 0z" />
            </g>
            <g>
              <path fill="currentColor" d="M56.695 24.69a2.495 2.495 0 1 1 4.99 0 2.495 2.495 0 0 1-4.99 0z" />
            </g>
            <g>
              <path fill="currentColor" d="M42.621 24.69a2.495 2.495 0 1 1 4.99 0 2.495 2.495 0 0 1-4.99 0z" />
            </g>
            <g>
              <path fill="currentColor" d="M42.621 10.656a2.495 2.495 0 1 1 4.99 0 2.495 2.495 0 0 1-4.99 0z" />
            </g>
          </g>
          <g>
            <path fill="currentColor"
              d="M47.741 17.678c0-2.436 1.98-4.411 4.423-4.411a4.417 4.417 0 0 1 4.423 4.41c0 2.437-1.98 4.411-4.423 4.411a4.417 4.417 0 0 1-4.423-4.41z" />
          </g>
        </g>
      </g>
      <g>
        <path fill="#182f37"
          d="M57.336 42.816h.42c.336 0 .792-.036 1.104-.348.132-.132.3-.384.3-.78 0-.456-.216-.696-.372-.816-.3-.228-.78-.252-1.02-.252h-.432zm.96-3.636c1.02 0 1.656.336 2.04.696.336.324.696.9.696 1.788 0 .504-.108 1.128-.624 1.632a2.518 2.518 0 0 1-1.116.612l2.46 3.276h-2.256l-2.16-3.156v3.156h-1.848V39.18zM53.1 40.74h-2.676v1.548h2.544v1.56h-2.544v1.776H53.1v1.56h-4.524V39.18H53.1zm-10.848 2.076h.42c.336 0 .792-.036 1.104-.348.132-.132.3-.384.3-.78 0-.456-.216-.696-.372-.816-.3-.228-.78-.252-1.02-.252h-.432zm.96-3.636c1.02 0 1.656.336 2.04.696.336.324.696.9.696 1.788 0 .504-.108 1.128-.624 1.632a2.518 2.518 0 0 1-1.116.612l2.46 3.276h-2.256l-2.16-3.156v3.156h-1.848V39.18zm-11.184 2.208c-.348.336-.708.924-.708 1.812 0 .732.24 1.32.732 1.8.516.492 1.092.66 1.716.66.816 0 1.392-.3 1.776-.684.312-.3.696-.864.696-1.788 0-.828-.336-1.44-.696-1.8-.396-.384-1.032-.684-1.764-.684-.696 0-1.32.252-1.752.684zm4.86-1.224c.756.732 1.248 1.788 1.248 3.024 0 1.068-.384 2.16-1.248 3-.744.72-1.752 1.176-3.096 1.176-1.5 0-2.52-.6-3.12-1.176-.768-.72-1.248-1.8-1.248-2.976 0-1.152.516-2.316 1.236-3.036.54-.54 1.536-1.176 3.132-1.176 1.248 0 2.292.384 3.096 1.164zm-11.256-.984v6.444h2.484v1.56h-4.332V39.18zm-7.752 3.684h.66c.252 0 .696-.012.996-.3.168-.168.3-.444.3-.792 0-.336-.12-.612-.3-.78-.276-.264-.672-.3-1.032-.3h-.624zm.972-3.684c.696 0 1.464.096 2.1.66.684.6.78 1.392.78 1.944 0 1.008-.384 1.572-.684 1.884-.636.648-1.476.708-2.04.708H17.88v2.808h-1.848V39.18zm-9.756 3.756L6.612 39.18h2.22l1.32 2.28 1.32-2.28h2.22l-2.484 3.756 2.94 4.248h-2.22l-1.776-2.772-1.776 2.772h-2.22zM4.524 40.74H1.848v1.548h2.544v1.56H1.848v1.776h2.676v1.56H0V39.18h4.524z" />
      </g>
    </g>
  </g>
</svg>
