<svg xmlns="http://www.w3.org/2000/svg" width="32" height="32" viewBox="0 0 32 32">
  <g>
    <g>
      <g />
      <g>
        <path fill="#fff"
          d="M10.1 11.914a5.333 5.333 0 1 0 9.665 1.182 2.667 2.667 0 1 1-3.528-3.528 5.333 5.333 0 0 0-6.138 2.346zm11.067 9.453a9.303 9.303 0 0 1-6.5 2.633 9.33 9.33 0 0 1-9.334-9.333 9.33 9.33 0 0 1 9.334-9.334A9.33 9.33 0 0 1 24 14.667a9.303 9.303 0 0 1-2.633 6.5zm2.874.789a11.947 11.947 0 0 0 2.626-7.49c0-6.623-5.376-12-12-12s-12 5.377-12 12c0 6.625 5.376 12 12 12a11.947 11.947 0 0 0 7.489-2.625l5.71 5.711 1.886-1.887-5.71-5.709z" />
      </g>
    </g>
  </g>
</svg>
